HIERARCHY
ROOT hip
{
  OFFSET 31.632 141.092 8.53086
  CHANNELS 6 Xposition Yposition Zposition Zrotation Xrotation Yrotation
  JOINT abdomen
  {
    OFFSET 0 20.6881 -0.73152
    CHANNELS 3 Zrotation Xrotation Yrotation
    JOINT chest
    {
      OFFSET 0 11.7043 -0.48768
      CHANNELS 3 Zrotation Xrotation Yrotation
      JOINT neck
      {
        OFFSET 0 22.1894 -2.19456
        CHANNELS 3 Zrotation Xrotation Yrotation
        JOINT head
        {
          OFFSET -0.24384 7.07133 1.2192
          CHANNELS 3 Zrotation Xrotation Yrotation
          JOINT leftEye
          {
            OFFSET 4.14528 8.04674 8.04672
            CHANNELS 3 Zrotation Xrotation Yrotation
            End Site
            {
              OFFSET 1 0 0
            }
          }
          JOINT rightEye
          {
            OFFSET -3.6576 8.04674 8.04672
            CHANNELS 3 Zrotation Xrotation Yrotation
            End Site
            {
              OFFSET 1 0 0
            }
          }
        }
      }
      JOINT rCollar
      {
        OFFSET -2.68224 19.2634 -4.8768
        CHANNELS 3 Zrotation Xrotation Yrotation
        JOINT rShldr
        {
          OFFSET -8.77824 -1.95073 1.46304
          CHANNELS 3 Zrotation Xrotation Yrotation
          JOINT rForeArm
          {
            OFFSET -28.1742 -1.7115 0.48768
            CHANNELS 3 Zrotation Xrotation Yrotation
            JOINT rHand
            {
              OFFSET -22.5879 0.773209 7.07136
              CHANNELS 3 Zrotation Xrotation Yrotation
              JOINT rThumb1
              {
                OFFSET -1.2192 -0.487915 3.41376
                CHANNELS 3 Zrotation Xrotation Yrotation
                JOINT rThumb2
                {
                  OFFSET -3.37035 -0.52449 3.41376
                  CHANNELS 3 Zrotation Xrotation Yrotation
                  End Site
                  {
                    OFFSET -1.78271 -1.18214 1.43049
                  }
                }
              }
              JOINT rIndex1
              {
                OFFSET -7.75947 0.938293 5.60832
                CHANNELS 3 Zrotation Xrotation Yrotation
                JOINT rIndex2
                {
                  OFFSET -2.54057 -0.884171 1.56538
                  CHANNELS 3 Zrotation Xrotation Yrotation
                  End Site
                  {
                    OFFSET -1.62519 -0.234802 1.16502
                  }
                }
              }
              JOINT rMid1
              {
                OFFSET -8.24714 1.18213 3.41376
                CHANNELS 3 Zrotation Xrotation Yrotation
                JOINT rMid2
                {
                  OFFSET -3.10165 -0.590103 1.0647
                  CHANNELS 3 Zrotation Xrotation Yrotation
                  End Site
                  {
                    OFFSET -2.48547 -0.328903 0.83742
                  }
                }
              }
              JOINT rRing1
              {
                OFFSET -8.82822 0.546677 1.51678
                CHANNELS 3 Zrotation Xrotation Yrotation
                JOINT rRing2
                {
                  OFFSET -2.60934 -0.819778 -0.0198488
                  CHANNELS 3 Zrotation Xrotation Yrotation
                  End Site
                  {
                    OFFSET -2.33842 -0.294052 0.168128
                  }
                }
              }
              JOINT rPinky1
              {
                OFFSET -8.27202 -0.0477905 -0.4584
                CHANNELS 3 Zrotation Xrotation Yrotation
                JOINT rPinky2
                {
                  OFFSET -1.82734 -0.647385 -0.700984
                  CHANNELS 3 Zrotation Xrotation Yrotation
                  End Site
                  {
                    OFFSET -1.69225 -0.51767 -0.607171
                  }
                }
              }
            }
          }
        }
      }
      JOINT lCollar
      {
        OFFSET 2.68224 19.2634 -4.8768
        CHANNELS 3 Zrotation Xrotation Yrotation
        JOINT lShldr
        {
          OFFSET 8.77824 -1.95073 1.46304
          CHANNELS 3 Zrotation Xrotation Yrotation
          JOINT lForeArm
          {
            OFFSET 28.1742 -1.7115 0.48768
            CHANNELS 3 Zrotation Xrotation Yrotation
            JOINT lHand
            {
              OFFSET 22.5879 0.773209 7.07136
              CHANNELS 3 Zrotation Xrotation Yrotation
              JOINT lThumb1
              {
                OFFSET 1.2192 -0.487915 3.41376
                CHANNELS 3 Zrotation Xrotation Yrotation
                JOINT lThumb2
                {
                  OFFSET 3.37035 -0.52449 3.41376
                  CHANNELS 3 Zrotation Xrotation Yrotation
                  End Site
                  {
                    OFFSET 1.78271 -1.18214 1.43049
                  }
                }
              }
              JOINT lIndex1
              {
                OFFSET 7.75947 0.938293 5.60832
                CHANNELS 3 Zrotation Xrotation Yrotation
                JOINT lIndex2
                {
                  OFFSET 2.54057 -0.884171 1.56538
                  CHANNELS 3 Zrotation Xrotation Yrotation
                  End Site
                  {
                    OFFSET 1.62519 -0.234802 1.16502
                  }
                }
              }
              JOINT lMid1
              {
                OFFSET 8.24714 1.18213 3.41376
                CHANNELS 3 Zrotation Xrotation Yrotation
                JOINT lMid2
                {
                  OFFSET 3.10165 -0.590103 1.0647
                  CHANNELS 3 Zrotation Xrotation Yrotation
                  End Site
                  {
                    OFFSET 2.48547 -0.328903 0.83742
                  }
                }
              }
              JOINT lRing1
              {
                OFFSET 8.82822 0.546677 1.51678
                CHANNELS 3 Zrotation Xrotation Yrotation
                JOINT lRing2
                {
                  OFFSET 2.60934 -0.819778 -0.0198488
                  CHANNELS 3 Zrotation Xrotation Yrotation
                  End Site
                  {
                    OFFSET 2.33842 -0.294052 0.168128
                  }
                }
              }
              JOINT lPinky1
              {
                OFFSET 8.27202 -0.0477905 -0.4584
                CHANNELS 3 Zrotation Xrotation Yrotation
                JOINT lPinky2
                {
                  OFFSET 1.82734 -0.647385 -0.700984
                  CHANNELS 3 Zrotation Xrotation Yrotation
                  End Site
                  {
                    OFFSET 1.69225 -0.51767 -0.607171
                  }
                }
              }
            }
          }
        }
      }
    }
  }
  JOINT rButtock
  {
    OFFSET -8.77824 4.35084 1.2192
    CHANNELS 3 Zrotation Xrotation Yrotation
    JOINT rThigh
    {
      OFFSET 0 -1.70687 -2.19456
      CHANNELS 3 Zrotation Xrotation Yrotation
      JOINT rShin
      {
        OFFSET 0 -36.8199 0.73152
        CHANNELS 3 Zrotation Xrotation Yrotation
        JOINT rFoot
        {
          OFFSET 0.73152 -45.1104 -5.12064
          CHANNELS 3 Zrotation Xrotation Yrotation
          End Site
          {
            OFFSET -1.1221 -3.69964 12.103
          }
        }
      }
    }
  }
  JOINT lButtock
  {
    OFFSET 8.77824 4.35084 1.2192
    CHANNELS 3 Zrotation Xrotation Yrotation
    JOINT lThigh
    {
      OFFSET 0 -1.70687 -2.19456
      CHANNELS 3 Zrotation Xrotation Yrotation
      JOINT lShin
      {
        OFFSET 0 -36.8199 0.73152
        CHANNELS 3 Zrotation Xrotation Yrotation
        JOINT lFoot
        {
          OFFSET -0.73152 -45.1104 -5.12064
          CHANNELS 3 Zrotation Xrotation Yrotation
          End Site
          {
            OFFSET 1.1221 -3.69964 12.103
          }
        }
      }
    }
  }
}
MOTION
Frames:	9
Frame Time:	0.00833333
35.8868 134.298 -27.8697 2.05169 1.2501 2.21933 6.47482 11.4951 2.23266 -0.503216 -2.27879 0.720283 1.53376 16.5114 -3.58551 -1.19786 -6.27056 -6.80733 -0 0 0 -0 0 0 -1.44632e-013 -4.98264e-015 -1.2227e-013 71.9605 16.3366 5.87999 -21.7929 -15.4479 43.2391 -0.0529711 6.54114 0.923378 1.14302e-009 -2.89204e-009 8.18538e-010 1.97857e-009 -5.00098e-009 1.40877e-009 1.14302e-009 -2.89204e-009 8.18531e-010 7.73091 5.47488 0.417314 1.14302e-009 -2.89204e-009 8.18545e-010 2.90554 0.965183 0.102902 1.14303e-009 -2.89204e-009 8.18539e-010 10.2786 0.731801 0.0259123 1.14302e-009 -2.89204e-009 8.18552e-010 2.22167 -0.733487 -0.20892 -1.44607e-013 -4.98102e-015 -1.22422e-013 -53.2199 28.6926 -14.7061 18.3714 -11.0902 -34.8634 0.0150429 3.36365 -0.473323 1.1693e-009 2.60979e-009 2.39873e-010 2.0209e-009 4.50919e-009 4.09155e-010 1.16929e-009 2.60979e-009 2.39886e-010 -7.73091 5.47488 -0.417314 1.1693e-009 2.60979e-009 2.39867e-010 -2.90554 0.965183 -0.102902 1.16929e-009 2.6098e-009 2.39871e-010 -10.2786 0.731801 -0.0259123 1.1693e-009 2.6098e-009 2.39865e-010 -2.22167 -0.733487 0.20892 -2.03217e-016 0 -3.88251e-019 -7.04939 -26.6274 -9.09673 0.0229916 29.1713 0.835487 -4.64947 -23.4476 -10.211 2.03217e-016 0 3.88251e-019 1.81963 -35.3539 1.06088 0.192762 27.6173 -0.46883 0.556754 5.78469 -11.3617 
35.8527 134.392 -27.0779 1.79757 1.16645 2.64269 7.00723 11.3285 2.31599 -0.568278 -2.4398 0.75609 1.58709 16.6275 -3.73571 -1.1722 -6.22948 -7.07961 -0 0 0 -0 0 0 -1.08542e-013 1.71977e-014 -1.03039e-013 72.8364 16.0475 4.3121 -21.5765 -15.1307 42.6716 -0.0546144 6.62866 0.935873 5.19607e-010 -1.30274e-009 7.61495e-010 8.99901e-010 -2.25364e-009 1.31395e-009 5.1961e-010 -1.30274e-009 7.61482e-010 7.73091 5.47488 0.417314 5.19609e-010 -1.30274e-009 7.61497e-010 2.90554 0.965183 0.102902 5.19613e-010 -1.30273e-009 7.61494e-010 10.2786 0.731801 0.0259123 5.19605e-010 -1.30274e-009 7.61504e-010 2.22167 -0.733487 -0.20892 -1.08544e-013 1.71923e-014 -1.03191e-013 -54.2892 28.4348 -14.0679 18.1754 -10.8751 -34.419 0.0161203 3.41041 -0.47994 1.40443e-009 3.13439e-009 1.8269e-010 2.42904e-009 5.4189e-009 3.09244e-010 1.40443e-009 3.13439e-009 1.827e-010 -7.73091 5.47488 -0.417314 1.40443e-009 3.13439e-009 1.82685e-010 -2.90554 0.965183 -0.102902 1.40443e-009 3.13439e-009 1.82686e-010 -10.2786 0.731801 -0.0259123 1.40444e-009 3.1344e-009 1.82681e-010 -2.22167 -0.733487 0.20892 -2.03217e-016 0 -3.88251e-019 -6.81655 -26.4196 -9.21757 0.0253157 29.0767 0.833614 -4.73138 -23.166 -10.5339 2.03217e-016 0 3.88251e-019 2.44723 -35.4245 1.64095 0.193515 27.9033 -0.485513 0.762613 6.69306 -12.2445 
35.8066 134.496 -26.3076 1.5326 1.10041 3.00313 7.5231 11.1733 2.3777 -0.635443 -2.58331 0.785259 1.64384 16.7173 -3.8545 -1.17502 -6.23954 -7.2981 -0 0 0 -0 0 0 -6.67101e-014 4.19121e-014 -7.73629e-014 73.6311 15.8309 2.88562 -21.3472 -14.8036 42.0706 -0.056582 6.74865 0.95297 -1.86343e-010 4.81976e-010 6.47633e-010 -3.21713e-010 8.31602e-010 1.12132e-009 -1.86342e-010 4.81981e-010 6.47614e-010 7.73091 5.47488 0.417314 -1.86344e-010 4.81979e-010 6.47629e-010 2.90554 0.965183 0.102902 -1.8634e-010 4.81981e-010 6.4763e-010 10.2786 0.731801 0.0259123 -1.86345e-010 4.81979e-010 6.47638e-010 2.22167 -0.733487 -0.20892 -6.67401e-014 4.19006e-014 -7.75132e-014 -55.3707 28.0509 -13.3593 17.9909 -10.6766 -34.0011 0.0145426 3.2555 -0.458079 1.55153e-009 3.53232e-009 1.12577e-010 2.68499e-009 6.10974e-009 1.87328e-010 1.55153e-009 3.53232e-009 1.12584e-010 -7.73091 5.47488 -0.417314 1.55154e-009 3.53232e-009 1.12573e-010 -2.90554 0.965183 -0.102902 1.55153e-009 3.53232e-009 1.1257e-010 -10.2786 0.731801 -0.0259123 1.55154e-009 3.53233e-009 1.12565e-010 -2.22167 -0.733487 0.20892 -2.03217e-016 0 -3.88251e-019 -6.60428 -26.3237 -9.34185 0.0251927 29.0934 0.831877 -4.76897 -22.7743 -10.8007 2.03217e-016 0 3.88251e-019 3.07474 -35.5241 2.17401 0.195323 28.2775 -0.502522 0.969247 7.492 -13.0643 
35.7562 134.62 -25.5491 1.32078 1.04146 3.29552 7.93595 11.0054 2.41739 -0.683038 -2.67379 0.806144 1.66251 16.7717 -3.94496 -1.08523 -6.23507 -7.4599 -0 0 0 -0 0 0 -3.21844e-014 5.56667e-014 -5.23798e-014 74.3503 15.6586 1.62718 -21.0853 -14.4411 41.3842 -0.0602351 6.9861 0.986775 -7.07301e-010 1.74894e-009 4.74453e-010 -1.22348e-009 3.02217e-009 8.25031e-010 -7.07302e-010 1.74895e-009 4.74431e-010 7.73091 5.47488 0.417314 -7.07304e-010 1.74895e-009 4.74447e-010 2.90554 0.965183 0.102902 -7.07301e-010 1.74895e-009 4.7445e-010 10.2786 0.731801 0.0259123 -7.07305e-010 1.74895e-009 4.74456e-010 2.22167 -0.733487 -0.20892 -3.22238e-014 5.56527e-014 -5.25288e-014 -56.4567 27.5616 -12.5878 17.8053 -10.479 -33.5851 0.0101644 2.8773 -0.404722 1.43286e-009 3.47737e-009 3.69771e-011 2.48069e-009 6.01649e-009 5.66783e-011 1.43287e-009 3.47738e-009 3.69835e-011 -7.73091 5.47488 -0.417314 1.43287e-009 3.47738e-009 3.69739e-011 -2.90554 0.965183 -0.102902 1.43286e-009 3.47738e-009 3.697e-011 -10.2786 0.731801 -0.0259123 1.43287e-009 3.47738e-009 3.69644e-011 -2.22167 -0.733487 0.20892 -2.03217e-016 0 -3.88251e-019 -6.47166 -26.2162 -9.44146 0.0255653 29.0867 0.827781 -4.78198 -22.3491 -11.0317 2.03217e-016 0 3.88251e-019 3.58079 -35.558 2.56582 0.198322 28.7031 -0.5171 1.1147 7.98338 -13.7177 
35.7125 134.767 -24.796 1.17288 0.998375 3.49123 8.2301 10.814 2.44325 -0.711799 -2.69498 0.820333 1.61581 16.7636 -3.99346 -0.848413 -6.19875 -7.53772 -0 0 0 -0 0 0 -6.46579e-015 5.28948e-014 -2.60769e-014 74.993 15.54 0.564104 -20.7803 -14.0276 40.6028 -0.0670114 7.39071 1.04449 -1.00194e-009 2.34614e-009 1.82073e-010 -1.73405e-009 4.05553e-009 3.21345e-010 -1.00194e-009 2.34615e-009 1.82051e-010 7.73091 5.47488 0.417314 -1.00194e-009 2.34614e-009 1.82067e-010 2.90554 0.965183 0.102902 -1.00194e-009 2.34614e-009 1.8207e-010 10.2786 0.731801 0.0259123 -1.00194e-009 2.34614e-009 1.82077e-010 2.22167 -0.733487 -0.20892 -6.48508e-015 5.28836e-014 -2.62237e-014 -57.5528 26.9512 -11.7276 17.6261 -10.2893 -33.1894 0.00454881 2.20554 -0.310042 8.37358e-010 2.65536e-009 -5.89768e-011 1.45076e-009 4.59536e-009 -1.07931e-010 8.37358e-010 2.65537e-009 -5.89685e-011 -7.73091 5.47488 -0.417314 8.3736e-010 2.65537e-009 -5.89799e-011 -2.90554 0.965183 -0.102902 8.37358e-010 2.65537e-009 -5.89836e-011 -10.2786 0.731801 -0.0259123 8.37361e-010 2.65537e-009 -5.89896e-011 -2.22167 -0.733487 0.20892 -2.03217e-016 0 -3.88251e-019 -6.44255 -26.109 -9.54293 0.0257616 29.0769 0.821878 -4.75299 -21.9031 -11.1756 2.03217e-016 0 3.88251e-019 3.94622 -35.5271 2.79506 0.20241 29.1836 -0.528902 1.17008 8.12095 -14.1821 
35.6819 134.94 -24.0444 1.05613 0.972917 3.60209 8.44894 10.6135 2.4528 -0.731233 -2.66808 0.82802 1.53092 16.7062 -4.00306 -0.536776 -6.16561 -7.54196 -0 0 0 -0 0 0 1.67454e-014 4.14492e-014 4.04713e-015 75.5673 15.4901 -0.327367 -20.4393 -13.5745 39.7545 -0.0767785 7.90812 1.11853 -1.20294e-009 2.6412e-009 -2.08437e-010 -2.08291e-009 4.56702e-009 -3.52568e-010 -1.20294e-009 2.6412e-009 -2.08456e-010 7.73091 5.47488 0.417314 -1.20294e-009 2.6412e-009 -2.08441e-010 2.90554 0.965183 0.102902 -1.20294e-009 2.6412e-009 -2.08437e-010 10.2786 0.731801 0.0259123 -1.20294e-009 2.6412e-009 -2.08429e-010 2.22167 -0.733487 -0.20892 1.67634e-014 4.14442e-014 3.90425e-015 -58.6457 26.2112 -10.7919 17.4573 -10.113 -32.8186 0.00057909 1.27323 -0.178839 -8.56373e-011 1.316e-009 -1.73638e-010 -1.46091e-010 2.27883e-009 -3.03991e-010 -8.56397e-011 1.316e-009 -1.73626e-010 -7.73091 5.47488 -0.417314 -8.56353e-011 1.316e-009 -1.73641e-010 -2.90554 0.965183 -0.102902 -8.56383e-011 1.316e-009 -1.73643e-010 -10.2786 0.731801 -0.0259123 -8.56336e-011 1.316e-009 -1.7365e-010 -2.22167 -0.733487 0.20892 -2.03217e-016 0 -3.88251e-019 -6.48326 -26.0532 -9.65007 0.0247164 29.1172 0.815085 -4.68079 -21.3982 -11.2417 2.03217e-016 0 3.88251e-019 4.23046 -35.4747 2.91022 0.207592 29.7342 -0.539311 1.15522 8.01287 -14.5071 
35.668 135.134 -23.2928 0.96976 0.943997 3.68366 8.59446 10.4173 2.42961 -0.732812 -2.61379 0.825467 1.44812 16.6509 -4.00191 -0.218405 -6.14848 -7.52623 -0 0 0 -0 0 0 3.61011e-014 2.79654e-014 3.15885e-014 76.0879 15.4876 -1.0958 -20.0664 -13.0938 38.8446 -0.0884736 8.46718 1.19878 -1.30378e-009 2.70045e-009 -5.78143e-010 -2.25844e-009 4.67082e-009 -9.91143e-010 -1.30377e-009 2.70046e-009 -5.78158e-010 7.73091 5.47488 0.417314 -1.30378e-009 2.70045e-009 -5.78144e-010 2.90554 0.965183 0.102902 -1.30378e-009 2.70045e-009 -5.78141e-010 10.2786 0.731801 0.0259123 -1.30378e-009 2.70045e-009 -5.78132e-010 2.22167 -0.733487 -0.20892 3.6158e-014 2.79679e-014 3.14464e-014 -59.7038 25.376 -9.84301 17.2797 -9.93094 -32.4275 -0.000351659 0.21366 -0.0299253 -9.73229e-010 -2.10713e-011 -2.74787e-010 -1.68179e-009 -3.39501e-011 -4.76622e-010 -9.73235e-010 -2.10659e-011 -2.74771e-010 -7.73091 5.47488 -0.417314 -9.73228e-010 -2.10738e-011 -2.74791e-010 -2.90554 0.965183 -0.102902 -9.73232e-010 -2.10698e-011 -2.74791e-010 -10.2786 0.731801 -0.0259123 -9.73224e-010 -2.10684e-011 -2.74798e-010 -2.22167 -0.733487 0.20892 -2.03217e-016 0 -3.88251e-019 -6.56577 -25.9832 -9.70051 0.0247286 29.1217 0.805476 -4.60758 -20.8347 -11.3399 2.03217e-016 0 3.88251e-019 4.42726 -35.3707 2.92017 0.214016 30.3356 -0.548088 1.07593 7.6944 -14.6967 
35.6656 135.342 -22.5456 0.913286 0.890534 3.79149 8.66846 10.2387 2.35727 -0.707967 -2.55279 0.808939 1.40769 16.6495 -4.01812 0.0387307 -6.16024 -7.54413 -0 0 0 -0 0 0 5.02532e-014 1.90791e-014 5.01434e-014 76.5673 15.5103 -1.78919 -19.6669 -12.5986 37.8775 -0.100313 8.99674 1.27501 -1.29793e-009 2.59023e-009 -8.08112e-010 -2.24908e-009 4.48112e-009 -1.38882e-009 -1.29792e-009 2.59023e-009 -8.08125e-010 7.73091 5.47488 0.417314 -1.29793e-009 2.59023e-009 -8.08112e-010 2.90554 0.965183 0.102902 -1.29793e-009 2.59023e-009 -8.0811e-010 10.2786 0.731801 0.0259123 -1.29793e-009 2.59024e-009 -8.08099e-010 2.22167 -0.733487 -0.20892 5.03351e-014 1.9088e-014 4.99943e-014 -60.7019 24.4822 -8.94023 17.0727 -9.72325 -31.9714 0.000865126 -0.839846 0.118041 -1.46252e-009 -8.36197e-010 -3.30205e-010 -2.52824e-009 -1.44381e-009 -5.70943e-010 -1.46253e-009 -8.36192e-010 -3.30186e-010 -7.73091 5.47488 -0.417314 -1.46252e-009 -8.36201e-010 -3.30208e-010 -2.90554 0.965183 -0.102902 -1.46253e-009 -8.36197e-010 -3.30208e-010 -10.2786 0.731801 -0.0259123 -1.46252e-009 -8.36195e-010 -3.30215e-010 -2.22167 -0.733487 0.20892 -2.03217e-016 0 -3.88251e-019 -6.66218 -25.834 -9.63205 0.0280261 29.0049 0.791164 -4.57107 -20.2137 -11.5785 2.03217e-016 0 3.88251e-019 4.53082 -35.1847 2.83404 0.221797 30.9685 -0.55497 0.941683 7.19981 -14.7557 
35.6644 135.556 -21.8082 0.914638 0.801133 3.96329 8.62988 10.0893 2.20196 -0.640403 -2.48247 0.768553 1.42361 16.7337 -4.06705 0.226057 -6.23716 -7.62379 -0 0 0 -0 0 0 5.94355e-014 1.64176e-014 5.56861e-014 77.0017 15.5624 -2.38594 -19.2292 -12.0763 36.8286 -0.11207 9.50966 1.34899 -1.12578e-009 2.19622e-009 -8.44362e-010 -1.95157e-009 3.80003e-009 -1.45264e-009 -1.12578e-009 2.19622e-009 -8.44374e-010 7.73091 5.47488 0.417314 -1.12578e-009 2.19622e-009 -8.44363e-010 2.90554 0.965183 0.102902 -1.12578e-009 2.19622e-009 -8.4436e-010 10.2786 0.731801 0.0259123 -1.12579e-009 2.19622e-009 -8.4435e-010 2.22167 -0.733487 -0.20892 5.9527e-014 1.64321e-014 5.55145e-014 -61.6423 23.524 -8.07909 16.8348 -9.48652 -31.4548 0.00330027 -1.9213 0.270008 -1.3747e-009 -8.85444e-010 -3.42102e-010 -2.37578e-009 -1.52851e-009 -5.91264e-010 -1.37471e-009 -8.8544e-010 -3.42082e-010 -7.73091 5.47488 -0.417314 -1.3747e-009 -8.85449e-010 -3.42103e-010 -2.90554 0.965183 -0.102902 -1.3747e-009 -8.85445e-010 -3.42102e-010 -10.2786 0.731801 -0.0259123 -1.37469e-009 -8.85443e-010 -3.42108e-010 -2.22167 -0.733487 0.20892 -2.03217e-016 0 -3.88251e-019 -6.80789 -25.5742 -9.43679 0.0360505 28.7361 0.77134 -4.58892 -19.5103 -12.0331 2.03217e-016 0 3.88251e-019 4.49027 -34.9181 2.62006 0.231843 31.6881 -0.559627 0.718453 6.39476 -14.629 
